<svg height="606pt" viewBox="-132 -19 606 606.66842" width="606pt" xmlns="http://www.w3.org/2000/svg"><path d="m163.535156 231.878906c-52.355468-.230468-101.929687 23.5625-134.5 64.5625-52.148437 65.417969-47.71875 159.363282 10.359375 219.589844 32.375 33.890625 77.269531 52.960938 124.140625 52.71875 94.199219 0 170.839844-75.5625 170.839844-168.4375 0-92.878906-76.640625-168.433594-170.839844-168.433594zm38.054688 215.632813c-2.574219 4.074219-7.96875 5.296875-12.042969 2.71875l-45.125-28.476563c-2.535156-1.601562-4.070313-4.386718-4.070313-7.382812v-88.53125c0-4.828125 3.910157-8.734375 8.734376-8.734375 4.820312 0 8.734374 3.90625 8.734374 8.734375v83.714844l41.046876 25.90625c4.078124 2.574218 5.296874 7.96875 2.722656 12.050781zm0 0"/><path d="m313.257812 64.53125h-290.425781c-4.824219 0-8.734375-3.90625-8.734375-8.730469 0-4.828125 3.910156-8.734375 8.734375-8.734375h290.425781c4.824219 0 8.734376 3.90625 8.734376 8.734375 0 4.824219-3.910157 8.730469-8.734376 8.730469zm0 0"/><path d="m60.886719 111.609375c-2.316407 0-4.539063-.921875-6.175781-2.558594l-47.070313-47.070312c-3.410156-3.414063-3.410156-8.941407 0-12.351563l47.070313-47.070312c3.40625-3.410156 8.9375-3.410156 12.351562 0 3.410156 3.410156 3.410156 8.9375 0 12.351562l-40.890625 40.890625 40.894531 40.894531c2.496094 2.496094 3.242188 6.253907 1.890625 9.519532-1.351562 3.257812-4.539062 5.386718-8.070312 5.386718zm0 0"/><path d="m304.246094 154.671875h-290.429688c-4.820312 0-8.734375-3.914063-8.734375-8.734375 0-4.824219 3.914063-8.730469 8.734375-8.730469h290.429688c4.824218 0 8.734375 3.90625 8.734375 8.730469 0 4.820312-3.910157 8.734375-8.734375 8.734375zm0 0"/><path d="m266.1875 201.738281c-3.535156.003907-6.714844-2.125-8.070312-5.390625-1.351563-3.265625-.605469-7.019531 1.894531-9.519531l40.894531-40.890625-40.894531-40.894531c-3.410157-3.410157-3.410157-8.941407 0-12.355469 3.410156-3.410156 8.9375-3.410156 12.351562 0l47.070313 47.082031c3.410156 3.410157 3.410156 8.941407 0 12.347657l-47.066406 47.066406c-1.636719 1.636718-3.859376 2.558594-6.179688 2.554687zm0 0"/></svg>