<svg height="459pt" viewBox="-91 0 459 459.84138" width="459pt" xmlns="http://www.w3.org/2000/svg"><path d="m139.351562 194.839844c71.757813 0 129.929688 57.308594 129.929688 128s-58.171875 128-129.929688 128c-35.640624.089844-69.765624-14.398438-94.449218-40.101563-44.125-45.734375-47.492188-117.101562-7.871094-166.789062 24.820312-31.132813 62.503906-49.21875 102.320312-49.109375zm0 0" fill="#e48e66"/><path d="m37.03125 243.949219c-39.621094 49.6875-36.253906 121.054687 7.871094 166.789062 24.683594 25.703125 58.808594 40.191407 94.449218 40.101563v-256c-39.816406-.109375-77.5 17.976562-102.320312 49.109375zm0 0" fill="#d18162"/><g fill="#63316d"><path d="m139.351562 185.839844c-42.578124-.1875-82.886718 19.167968-109.363281 52.507812-42.425781 53.214844-38.824219 129.636719 8.417969 178.625 26.324219 27.558594 62.835938 43.0625 100.945312 42.867188 76.605469 0 138.929688-61.457032 138.929688-137 0-75.542969-62.324219-137-138.929688-137zm0 256c-33.203124.175781-65.015624-13.324219-87.953124-37.328125-41.007813-42.488281-44.140626-108.796875-7.324219-154.960938 23.074219-29.035156 58.191406-45.882812 95.277343-45.710937 66.679688 0 120.929688 53.382812 120.929688 119 0 65.617187-54.25 119-120.929688 119zm0 0"/><path d="m168.734375 349.320312-31.964844-20.171874v-66c0-4.96875-4.027343-9-9-9-4.96875 0-9 4.03125-9 9v70.960937c0 3.089844 1.585938 5.964844 4.199219 7.613281l36.160156 22.816406c4.207032 2.652344 9.761719 1.398438 12.417969-2.808593 2.652344-4.203125 1.394531-9.761719-2.808594-12.414063zm0 0"/><path d="m63.449219 2.636719c-3.511719-3.515625-9.210938-3.515625-12.726563 0l-37.730468 37.71875c-3.515626 3.515625-3.515626 9.214843 0 12.730469l37.730468 37.730468c3.515625 3.515625 9.214844 3.515625 12.730469 0 3.511719-3.515625 3.511719-9.214844-.003906-12.730468l-22.371094-22.367188h218.273437c4.96875 0 9-4.027344 9-9 0-4.96875-4.03125-9-9-9h-218.269531l22.363281-22.355469c3.515626-3.511719 3.519532-9.210937.003907-12.726562zm0 0"/><path d="m19.351562 127.960938h218.269532l-22.367188 22.363281c-3.511718 3.515625-3.511718 9.214843 0 12.730469 3.515625 3.515624 9.214844 3.515624 12.730469 0l37.730469-37.730469c3.515625-3.515625 3.515625-9.214844 0-12.730469l-37.730469-37.71875c-3.515625-3.515625-9.214844-3.515625-12.730469 0-3.511718 3.515625-3.511718 9.214844.003906 12.730469l22.363282 22.355469h-218.269532c-4.972656 0-9 4.027343-9 9 0 4.96875 4.027344 9 9 9zm0 0"/></g></svg>